<?xml version="1.0" standalone="no"?>
<!DOCTYPE svg PUBLIC "-//W3C//DTD SVG 20010904//EN"
 "http://www.w3.org/TR/2001/REC-SVG-20010904/DTD/svg10.dtd">
<svg version="1.0" xmlns="http://www.w3.org/2000/svg"
 width="152.000000pt" height="152.000000pt" viewBox="0 0 152.000000 152.000000"
 preserveAspectRatio="xMidYMid meet">
<metadata>
Created by potrace 1.11, written by Peter Selinger 2001-2013
</metadata>
<g transform="translate(0.000000,152.000000) scale(0.100000,-0.100000)"
fill="#000000" stroke="none">
<path d="M209 1511 c-77 -24 -161 -103 -189 -177 -19 -52 -20 -77 -20 -574 0
-497 1 -522 20 -574 14 -36 36 -68 69 -99 94 -88 44 -82 671 -82 627 0 577 -6
671 82 33 31 55 63 69 99 19 52 20 77 20 574 0 497 -1 522 -20 574 -14 36 -36
68 -69 99 -94 88 -47 82 -656 84 -297 1 -552 -2 -566 -6z m187 -666 c49 -20
70 -71 49 -120 -32 -78 -138 -78 -170 0 -14 31 -14 39 -1 70 10 23 27 41 48
50 41 18 33 18 74 0z m400 0 c77 -32 77 -138 -1 -170 -31 -14 -39 -14 -70 0
-50 20 -71 71 -51 120 10 23 27 41 48 50 41 18 33 18 74 0z m400 0 c77 -32 77
-138 -1 -170 -31 -14 -39 -14 -70 0 -50 20 -71 71 -51 120 10 23 27 41 48 50
41 18 33 18 74 0z"/>
</g>
</svg>
